<svg xmlns="http://www.w3.org/2000/svg" xmlns:svg="http://www.w3.org/2000/svg" xmlns:xlink="http://www.w3.org/1999/xlink" id="svg3874" width="48" height="48" version="1.1"><defs id="defs3876"><linearGradient id="linearGradient4057"><stop id="stop4059" offset="0" stop-color="#646464" stop-opacity="1"/><stop id="stop4061" offset="1" stop-color="#646464" stop-opacity="0"/></linearGradient><filter id="filter3771"><feGaussianBlur id="feGaussianBlur3773" stdDeviation=".63"/></filter><filter id="filter3830" width="1.077" height="1.27" x="-.039" y="-.135"><feGaussianBlur id="feGaussianBlur3832" stdDeviation=".675"/></filter><filter id="filter3844"><feGaussianBlur id="feGaussianBlur3846" stdDeviation=".215"/></filter><filter id="filter3997" width="1.123" height="1.432" x="-.062" y="-.216"><feGaussianBlur id="feGaussianBlur3999" stdDeviation="1.08"/></filter><linearGradient id="linearGradient4063" x1="77.752" x2="92.802" y1="15.702" y2="34.288" gradientTransform="translate(0,1003.3622)" gradientUnits="userSpaceOnUse" xlink:href="#linearGradient4057"/><clipPath id="clipPath4117" clipPathUnits="userSpaceOnUse"><rect id="rect4119" width="42" height="42" x="63" y="1007.362" fill="#666" fill-opacity="1" fill-rule="nonzero" stroke="none" stroke-width="4" color="#000" display="inline" enable-background="accumulate" overflow="visible" rx="2" ry="2" visibility="visible" style="marker:none"/></clipPath><linearGradient id="linearGradient4150" x1="77.752" x2="92.802" y1="15.702" y2="34.288" gradientTransform="translate(0,1003.3622)" gradientUnits="userSpaceOnUse" xlink:href="#linearGradient4057"/><linearGradient id="linearGradient4153" x1="77.752" x2="92.802" y1="15.702" y2="34.288" gradientTransform="translate(-60,1003.3622)" gradientUnits="userSpaceOnUse" xlink:href="#linearGradient4057"/><filter id="filter4179"><feGaussianBlur id="feGaussianBlur4181" stdDeviation=".42"/></filter></defs><metadata id="metadata3879"/><g id="layer1" transform="translate(0,-1004.3622)"><g id="ic_launcher"><rect id="rect4003" width="48" height="48" x="0" y="1004.362" fill="#000" fill-opacity="1" fill-rule="nonzero" stroke="none" stroke-width="4" color="#000" display="inline" enable-background="accumulate" opacity="0" overflow="visible" visibility="visible" style="marker:none"/><rect id="rect4005" width="42" height="42" x="3" y="1007.737" fill="#000" fill-opacity="1" fill-rule="nonzero" stroke="none" stroke-width="4" color="#000" display="inline" enable-background="accumulate" filter="url(#filter4179)" opacity=".5" overflow="visible" rx="2" ry="2" visibility="visible" style="marker:none"/><rect id="rect4007" width="42" height="42" x="3" y="1007.362" fill="#666" fill-opacity="1" fill-rule="nonzero" stroke="none" stroke-width="4" color="#000" display="inline" enable-background="accumulate" overflow="visible" rx="2" ry="2" visibility="visible" style="marker:none"/><g id="g4009" transform="translate(0,25)"><g id="g4011" transform="translate(0,-37)"><rect id="rect4013" width="42" height="12" x="3" y="1046.362" fill="#ffb400" fill-opacity="1" fill-rule="nonzero" stroke="none" stroke-width="4" color="#000" display="inline" enable-background="accumulate" overflow="visible" rx="0" ry="0" visibility="visible" style="marker:none"/><g id="g4015" transform="matrix(0.44759699,0,0,0.44759699,18.280059,589.78179)"><g id="g4017" transform="matrix(0.57719488,0,0,0.57719488,-0.78485104,440.42186)"><path id="path4019" fill="none" stroke="#fff" stroke-dasharray="none" stroke-miterlimit="4" stroke-width="4.913" d="m 81.263504,16.510391 c 0,10.659142 -8.640942,19.300083 -19.300083,19.300083 -10.659142,0 -19.300083,-8.640941 -19.300083,-19.300083 0,-10.6591414 8.640941,-19.3000829 19.300083,-19.3000829 10.659141,0 19.300083,8.6409415 19.300083,19.3000829 z" color="#000" display="inline" enable-background="accumulate" overflow="visible" transform="matrix(0.81415283,0,0,0.81415283,21.165767,1014.0334)" visibility="visible" style="marker:none"/><path id="path4021" fill="none" stroke="#fff" stroke-dasharray="none" stroke-dashoffset="0" stroke-linecap="butt" stroke-linejoin="miter" stroke-miterlimit="4" stroke-opacity="1" stroke-width="4" d="m 71.613464,1016.1486 c 0,3.7756 0,7.5513 1.5e-5,11.3268 2.669756,2.6697 5.339494,5.3395 8.009235,8.0092" color="#000" display="inline" enable-background="accumulate" overflow="visible" visibility="visible" style="marker:none"/></g></g></g><rect id="rect4023" width="42" height="1" x="3" y="-1021.362" fill="#000" fill-opacity="1" fill-rule="nonzero" stroke="none" stroke-width="4" color="#000" display="inline" enable-background="accumulate" opacity=".15" overflow="visible" rx="0" ry="0" transform="scale(1,-1)" visibility="visible" style="marker:none"/></g><g id="g4025" transform="translate(0,3.9999998)"><rect id="rect4027" width="42" height="12" x="3" y="1017.362" fill="#217821" fill-opacity="1" fill-rule="nonzero" stroke="none" stroke-width="4" color="#000" display="inline" enable-background="accumulate" overflow="visible" rx="0" ry="0" visibility="visible" style="marker:none"/><path id="path4029" fill="none" stroke="#fff" stroke-dasharray="none" stroke-dashoffset="0" stroke-linecap="butt" stroke-linejoin="miter" stroke-miterlimit="4" stroke-opacity="1" stroke-width=".894" d="m 6.0901458,1023.3433 3.1770696,3.0637 4.9925326,-6.2406" color="#000" display="inline" enable-background="accumulate" overflow="visible" visibility="visible" style="marker:none"/><rect id="rect4031" width="29" height="12" x="18" y="1017.362" fill="#000" fill-opacity="1" fill-rule="nonzero" stroke="none" stroke-width="4" color="#000" display="inline" enable-background="accumulate" filter="url(#filter3844)" opacity=".5" overflow="visible" rx="0" ry="0" visibility="visible" style="marker:none"/><rect id="rect4033" width="29" height="12" x="18" y="1017.362" fill="#fff" fill-opacity="1" fill-rule="nonzero" stroke="none" stroke-width="4" color="#000" display="inline" enable-background="accumulate" overflow="visible" rx="0" ry="0" visibility="visible" style="marker:none"/><rect id="rect4035" width="29" height="1" x="18" y="-1029.362" fill="#000" fill-opacity="1" fill-rule="nonzero" stroke="none" stroke-width="4" color="#000" display="inline" enable-background="accumulate" opacity=".15" overflow="visible" rx="0" ry="0" transform="scale(1,-1)" visibility="visible" style="marker:none"/><rect id="rect4037" width="5" height="12" x="18" y="1017.362" fill="#000" fill-opacity="1" fill-rule="nonzero" stroke="none" stroke-width="4" color="#000" display="inline" enable-background="accumulate" opacity=".5" overflow="visible" rx="0" ry="0" visibility="visible" style="marker:none"/></g><g id="g4039" transform="translate(0,-24)"><rect id="rect4041" width="42" height="12" x="3" y="1035.362" fill="#000" fill-opacity="1" fill-rule="nonzero" stroke="none" stroke-width="4" color="#000" display="inline" enable-background="accumulate" filter="url(#filter3997)" opacity=".5" overflow="visible" rx="0" ry="0" visibility="visible" style="marker:none"/><rect id="rect4043" width="42" height="12" x="3" y="1034.362" fill="#000" fill-opacity="1" fill-rule="nonzero" stroke="none" stroke-width="4" color="#000" display="inline" enable-background="accumulate" filter="url(#filter3830)" opacity=".3" overflow="visible" rx="0" ry="0" visibility="visible" style="marker:none"/><rect id="rect4045" width="42" height="12" x="3" y="1034.362" fill="#ff8080" fill-opacity="1" fill-rule="nonzero" stroke="none" stroke-width="4" color="#000" display="inline" enable-background="accumulate" overflow="visible" rx="0" ry="0" visibility="visible" style="marker:none"/><rect id="rect4047" width="5" height="12" x="3" y="1034.362" fill="#000" fill-opacity="1" fill-rule="nonzero" stroke="none" stroke-width="4" color="#000" display="inline" enable-background="accumulate" opacity=".5" overflow="visible" rx="0" ry="0" visibility="visible" style="marker:none"/><rect id="rect4049" width="42" height="1" x="3" y="-1046.362" fill="#000" fill-opacity="1" fill-rule="nonzero" stroke="none" stroke-width="4" color="#000" display="inline" enable-background="accumulate" opacity=".15" overflow="visible" rx="0" ry="0" transform="scale(1,-1)" visibility="visible" style="marker:none"/></g><path id="path4051" fill="url(#linearGradient4153)" fill-opacity="1" stroke="none" d="M 3.176777,1022.3951 30,1048.3622 l 13,0 c 1.108,0 2,-0.892 2,-2 l 0,-9 0,-4 2,0 0,-12 -2,0 0.17678,1.1213 z" opacity=".16"/></g></g></svg>