<svg xmlns="http://www.w3.org/2000/svg" xmlns:svg="http://www.w3.org/2000/svg" id="svg3874" width="96" height="48" version="1.1"><metadata id="metadata3879"/><g id="layer1" transform="translate(0,-1004.3622)"><rect id="rect3191" width="48" height="48" x="0" y="1004.362" fill="#217821" fill-opacity="1" fill-rule="nonzero" stroke="none" stroke-width=".25" color="#000" display="inline" enable-background="accumulate" opacity="1" overflow="visible" visibility="visible" style="marker:none"/><rect id="rect3193" width="48" height="48" x="48" y="1004.362" fill="#ffb400" fill-opacity="1" fill-rule="nonzero" stroke="none" stroke-width=".25" color="#000" display="inline" enable-background="accumulate" opacity="1" overflow="visible" visibility="visible" style="marker:none"/><g id="ic_item_swipe_right"><rect id="rect4034" width="48" height="48" x="0" y="1004.362" fill="#000" fill-opacity="1" fill-rule="nonzero" stroke="none" stroke-width=".25" color="#000" display="inline" enable-background="accumulate" opacity="0" overflow="visible" visibility="visible" style="marker:none"/><path stroke-opacity="1" style="marker:none" id="path3980" fill="none" stroke="#fff" stroke-dasharray="none" stroke-dashoffset="0" stroke-linecap="butt" stroke-linejoin="miter" stroke-miterlimit="4" stroke-width="2.337" d="m 13.220696,1028.8934 8.308259,8.0115 13.055832,-16.3198" color="#000" display="inline" enable-background="accumulate" overflow="visible" visibility="visible"/></g><g id="ic_item_swipe_left"><rect id="rect4040" width="48" height="48" x="48" y="1004.362" fill="#000" fill-opacity="1" fill-rule="nonzero" stroke="none" stroke-width=".25" color="#000" display="inline" enable-background="accumulate" opacity="0" overflow="visible" visibility="visible" style="marker:none"/><g id="g4030" transform="matrix(0.62069806,0,0,0.62069806,27.163125,389.72341)"><path id="path3978" fill="none" stroke="#fff" stroke-dasharray="none" stroke-miterlimit="4" stroke-width="4.913" d="m 61.963421,-2.7896919 c 10.659142,2e-7 19.300083,8.6409419 19.300083,19.3000839 0,10.659141 -8.640942,19.300083 -19.300084,19.300082 -10.659141,0 -19.300083,-8.640942 -19.300082,-19.300083 0,-10.6591416 8.640941,-19.3000829 19.300083,-19.3000829" color="#000" display="inline" enable-background="accumulate" overflow="visible" transform="matrix(0.81415283,0,0,0.81415283,21.165767,1014.0334)" visibility="visible" style="marker:none"/><path id="path4005" fill="none" stroke="#fff" stroke-dasharray="none" stroke-dashoffset="0" stroke-linecap="butt" stroke-linejoin="miter" stroke-miterlimit="4" stroke-opacity="1" stroke-width="4" d="m 71.613464,1016.1486 c 0,3.7756 0,7.5513 1.5e-5,11.3268 2.669756,2.6697 5.339494,5.3395 8.009235,8.0092" color="#000" display="inline" enable-background="accumulate" overflow="visible" visibility="visible" style="marker:none"/></g></g></g></svg>